<?xml version="1.0" standalone="no"?>
<!DOCTYPE svg PUBLIC "-//W3C//DTD SVG 20010904//EN"
 "http://www.w3.org/TR/2001/REC-SVG-20010904/DTD/svg10.dtd">
<svg version="1.0" xmlns="http://www.w3.org/2000/svg"
 width="330.000000pt" height="150.000000pt" viewBox="0 0 330.000000 150.000000"
 preserveAspectRatio="xMidYMid meet">

<g transform="translate(0.000000,150.000000) scale(0.100000,-0.100000)"
fill="#000000" stroke="none">
<path d="M392 870 l-62 -120 62 -120 63 -120 149 3 150 2 68 113 c37 62 68
117 68 122 0 5 -31 60 -68 122 l-68 113 -150 2 -149 3 -63 -120z m390 38 c25
-40 55 -90 67 -110 l23 -38 -134 0 -133 0 -60 102 c-33 56 -61 105 -63 110 -2
4 55 8 126 8 l130 0 44 -72z m67 -205 c-12 -21 -42 -71 -67 -110 l-44 -73
-130 0 c-71 0 -128 4 -126 8 2 5 30 54 63 110 l60 102 133 0 134 0 -23 -37z"/>
<path d="M1145 835 c-35 -34 -35 -106 0 -140 38 -39 86 -32 110 16 50 95 -39
195 -110 124z m84 -9 c19 -22 23 -78 9 -106 -17 -31 -53 -37 -79 -14 -24 22
-26 90 -2 116 19 21 56 24 72 4z"/>
<path d="M1320 765 l0 -95 55 0 c30 0 55 5 55 10 0 6 -20 10 -45 10 l-45 0 0
85 c0 50 -4 85 -10 85 -6 0 -10 -38 -10 -95z"/>
<path d="M1507 818 c-8 -24 -24 -67 -36 -95 -20 -52 -11 -76 11 -28 9 21 18
25 54 25 36 0 43 -3 48 -25 6 -22 26 -36 26 -17 0 19 -67 176 -77 179 -6 2
-18 -15 -26 -39z m32 -76 c-17 -2 -33 -1 -36 1 -2 3 3 22 13 43 l16 39 19 -40
18 -40 -30 -3z"/>
<path d="M1650 765 c0 -57 4 -95 10 -95 6 0 10 16 10 35 0 34 1 35 40 35 52 0
85 30 75 68 -9 38 -32 52 -87 52 l-48 0 0 -95z m110 55 c18 -34 -4 -60 -50
-60 -40 0 -40 0 -40 40 0 40 0 40 40 40 29 0 42 -5 50 -20z"/>
<path d="M1910 766 c0 -115 18 -130 22 -18 l3 77 30 -74 c17 -41 35 -76 41
-78 5 -2 23 32 39 74 l30 78 3 -77 c4 -111 22 -97 22 17 0 118 -15 125 -56 28
-15 -38 -31 -72 -34 -76 -4 -4 -21 25 -37 65 -18 41 -38 74 -47 76 -14 3 -16
-10 -16 -92z"/>
<path d="M2199 833 c-32 -83 -59 -156 -59 -159 0 -2 4 -4 10 -4 5 0 12 11 16
25 5 22 12 25 50 25 38 0 46 -4 54 -25 5 -14 14 -25 19 -25 6 0 -1 30 -16 68
-14 37 -30 79 -35 95 -6 15 -14 27 -19 27 -5 0 -14 -12 -20 -27z m35 -37 c3
-13 9 -31 12 -40 5 -13 -1 -16 -29 -16 l-35 0 15 40 c18 46 28 50 37 16z"/>
<path d="M2352 844 c-38 -26 -25 -55 36 -83 57 -27 70 -56 28 -67 -32 -8 -66
3 -66 22 0 8 -4 14 -10 14 -5 0 -10 -6 -10 -14 0 -19 38 -46 65 -46 29 0 65
28 65 49 0 23 -27 48 -62 56 -38 10 -54 31 -38 50 18 21 58 19 72 -5 15 -23
28 -26 28 -6 0 19 -38 46 -65 46 -11 0 -31 -7 -43 -16z"/>
<path d="M2490 850 c0 -5 14 -10 30 -10 l30 0 0 -85 c0 -50 4 -85 10 -85 6 0
10 35 10 85 l0 85 30 0 c17 0 30 5 30 10 0 6 -30 10 -70 10 -40 0 -70 -4 -70
-10z"/>
<path d="M2670 765 l0 -95 60 0 c33 0 60 4 60 10 0 6 -20 10 -45 10 -45 0 -45
0 -45 35 0 34 1 35 40 35 22 0 40 5 40 10 0 6 -18 10 -40 10 -38 0 -40 2 -40
30 0 29 2 30 45 30 25 0 45 5 45 10 0 6 -27 10 -60 10 l-60 0 0 -95z"/>
<path d="M2830 765 c0 -78 3 -95 15 -95 11 0 15 11 15 40 0 35 3 40 23 40 18
0 28 -10 42 -40 10 -22 24 -40 32 -40 11 0 9 9 -8 40 -21 37 -21 41 -6 58 41
45 4 92 -70 92 l-43 0 0 -95z m101 59 c19 -23 -1 -48 -40 -52 -30 -3 -31 -2
-31 32 0 33 2 36 29 36 16 0 34 -7 42 -16z"/>
<path d="M1810 750 c0 -5 14 -10 30 -10 17 0 30 5 30 10 0 6 -13 10 -30 10
-16 0 -30 -4 -30 -10z"/>
</g>
</svg>
